<svg width="287" height="87" viewBox="0 0 287 87" fill="none" xmlns="http://www.w3.org/2000/svg">
<path d="M43.375 0.72728C19.6413 0.72728 0.400391 19.9387 0.400391 43.6366C0.400391 67.3356 19.6413 86.5455 43.375 86.5455C67.1113 86.5455 86.3501 67.3356 86.3501 43.6366C86.3501 19.9402 67.1113 0.729329 43.3745 0.729329L43.375 0.72728ZM63.0829 62.6149C62.3131 63.8754 60.6607 64.2751 59.3983 63.5013C49.3083 57.3474 36.6062 55.9537 21.6473 59.3663C20.2058 59.6942 18.7689 58.7924 18.4405 57.3525C18.1105 55.9127 19.0101 54.478 20.4552 54.15C36.8254 50.4157 50.8673 52.0236 62.1951 58.9359C63.4575 59.7096 63.8578 61.3544 63.0829 62.6149ZM68.3429 50.9311C67.373 52.5052 65.31 53.0023 63.7346 52.0338C52.1831 44.9443 34.5746 42.8911 20.9114 47.0323C19.1394 47.5667 17.2679 46.5696 16.7301 44.8034C16.1964 43.034 17.1955 41.1689 18.9644 40.6309C34.5715 35.9025 53.9741 38.1929 67.2396 46.3324C68.815 47.3008 69.3128 49.3606 68.3429 50.9317V50.9311ZM68.7945 38.7647C54.9439 30.5505 32.0924 29.7952 18.8684 33.8027C16.7449 34.4457 14.4993 33.2488 13.8558 31.1285C13.2123 29.0071 14.41 26.7664 16.535 26.1218C31.7152 21.5205 56.9505 22.4095 72.8968 31.8617C74.8109 32.9936 75.437 35.4567 74.3029 37.3613C73.1739 39.2684 70.7004 39.8971 68.7965 38.7647H68.7945ZM117.32 40.3388C109.9 38.5721 108.581 37.3321 108.581 34.7265C108.581 32.265 110.9 30.6084 114.354 30.6084C117.7 30.6084 121.015 31.8663 124.494 34.456C124.597 34.5344 124.73 34.5656 124.859 34.5451C124.992 34.5257 125.105 34.4544 125.182 34.3473L128.805 29.2479C128.954 29.0379 128.913 28.7484 128.712 28.588C124.571 25.2712 119.912 23.6587 114.462 23.6587C106.451 23.6587 100.852 28.4594 100.852 35.3281C100.852 42.6938 105.681 45.3019 114.025 47.3151C121.123 48.9482 122.323 50.3163 122.323 52.7614C122.323 55.472 119.901 57.1578 116.001 57.1578C111.67 57.1578 108.134 55.6975 104.183 52.2849C104.085 52.1978 103.952 52.1619 103.829 52.1671C103.695 52.1773 103.577 52.2388 103.495 52.3362L99.4309 57.163C99.2615 57.3679 99.2821 57.6651 99.4771 57.8393C104.075 61.9385 109.73 64.1008 115.837 64.1008C124.469 64.1008 130.047 59.3919 130.047 52.1004C130.062 45.9481 126.372 42.5406 117.335 40.3455L117.32 40.3388ZM149.578 33.032C145.837 33.032 142.768 34.5036 140.233 37.5191V34.125C140.233 33.857 140.018 33.6387 139.751 33.6387H133.105C132.838 33.6387 132.623 33.857 132.623 34.125V71.8381C132.623 72.1045 132.838 72.3249 133.105 72.3249H139.751C140.018 72.3249 140.233 72.1045 140.233 71.8381V59.935C142.768 62.7686 145.837 64.1572 149.578 64.1572C156.532 64.1572 163.572 58.8129 163.572 48.5961C163.583 38.3774 156.542 33.0315 149.583 33.0315L149.578 33.032ZM155.844 48.5961C155.844 53.7965 152.637 57.4294 148.039 57.4294C143.497 57.4294 140.069 53.6325 140.069 48.5961C140.069 43.5593 143.497 39.7634 148.039 39.7634C152.56 39.7629 155.844 43.4768 155.844 48.5956V48.5961ZM181.61 33.032C172.655 33.032 165.64 39.9166 165.64 48.7073C165.64 57.4038 172.609 64.2136 181.503 64.2136C190.488 64.2136 197.524 57.3525 197.524 48.5961C197.524 39.8695 190.534 33.033 181.61 33.033V33.032ZM181.61 57.4806C176.848 57.4806 173.256 53.6581 173.256 48.5936C173.256 43.506 176.725 39.8141 181.503 39.8141C186.296 39.8141 189.908 43.6351 189.908 48.7048C189.908 53.7914 186.419 57.4806 181.61 57.4806ZM216.645 33.6387H209.332V26.1751C209.332 25.9076 209.116 25.6893 208.85 25.6893H202.204C201.937 25.6893 201.716 25.9076 201.716 26.1751V33.6387H198.524C198.258 33.6387 198.042 33.857 198.042 34.125V39.8264C198.042 40.0939 198.258 40.3127 198.524 40.3127H201.716V55.0672C201.716 61.0264 204.688 64.0496 210.553 64.0496C212.934 64.0496 214.91 63.5577 216.773 62.5022C216.927 62.4202 217.019 62.2562 217.019 62.082V56.6506C217.019 56.4866 216.932 56.3277 216.788 56.2406C216.645 56.1484 216.465 56.1433 216.316 56.2201C215.038 56.8606 213.802 57.1578 212.416 57.1578C210.286 57.1578 209.332 56.1894 209.332 54.0271V40.3153H216.645C216.911 40.3153 217.127 40.097 217.127 39.829V34.128C217.137 33.8601 216.922 33.6418 216.65 33.6418L216.645 33.6387ZM242.118 33.6679V32.7512C242.118 30.0545 243.155 28.8519 245.475 28.8519C246.86 28.8519 247.974 29.1265 249.221 29.5415C249.375 29.5897 249.534 29.5656 249.657 29.4739C249.785 29.3822 249.857 29.2351 249.857 29.0794V23.4891C249.857 23.2754 249.724 23.0863 249.513 23.0233C248.2 22.6324 246.516 22.2311 243.992 22.2311C237.859 22.2311 234.611 25.6816 234.611 32.206V33.61H231.419C231.152 33.61 230.931 33.8283 230.931 34.0958V39.8264C230.931 40.0939 231.152 40.3127 231.419 40.3127H234.611V63.0658C234.611 63.3374 234.831 63.5526 235.098 63.5526H241.739C242.011 63.5526 242.226 63.3374 242.226 63.0658V40.3142H248.43L257.934 63.0658C256.857 65.4536 255.795 65.9301 254.347 65.9301C253.177 65.9301 251.941 65.5817 250.683 64.8899C250.565 64.8285 250.422 64.8182 250.298 64.8541C250.17 64.9002 250.062 64.9924 250.011 65.1154L247.758 70.0498C247.65 70.2855 247.743 70.5571 247.969 70.6801C250.319 71.9508 252.438 72.4939 255.061 72.4939C259.967 72.4939 262.681 70.2086 265.068 64.0701L276.593 34.332C276.655 34.1824 276.634 34.0133 276.542 33.8805C276.455 33.7489 276.306 33.6694 276.147 33.6694H269.229C269.019 33.6694 268.834 33.8011 268.768 33.9953L261.681 54.2013L253.921 33.982C253.85 33.794 253.67 33.6694 253.47 33.6694H242.118V33.6679ZM227.349 33.6387H220.704C220.437 33.6387 220.216 33.857 220.216 34.125V63.0658C220.216 63.3374 220.437 63.5526 220.704 63.5526H227.349C227.616 63.5526 227.837 63.3374 227.837 63.0658V34.127C227.837 33.859 227.621 33.6407 227.349 33.6407V33.6387ZM224.065 20.4603C221.432 20.4603 219.298 22.5878 219.298 25.2159C219.298 27.8455 221.432 29.9756 224.065 29.9756C226.698 29.9756 228.827 27.8455 228.827 25.2159C228.827 22.5883 226.693 20.4603 224.065 20.4603ZM282.269 42.9444C279.642 42.9444 277.594 40.8359 277.594 38.2754C277.594 35.7149 279.667 33.5823 282.295 33.5823C284.922 33.5823 286.97 35.6903 286.97 38.2488C286.97 40.8092 284.897 42.9444 282.269 42.9444ZM282.295 34.0466C279.898 34.0466 278.087 35.9476 278.087 38.2754C278.087 40.6022 279.888 42.4776 282.269 42.4776C284.666 42.4776 286.477 40.5781 286.477 38.2488C286.477 35.9219 284.676 34.0466 282.295 34.0466ZM283.331 38.7289L284.655 40.5776H283.537L282.346 38.8816H281.325V40.5776H280.391V35.677H282.577C283.721 35.677 284.471 36.2596 284.471 37.2404C284.476 38.0438 284.009 38.5347 283.336 38.7289H283.331ZM282.541 36.5179H281.325V38.0679H282.541C283.147 38.0679 283.511 37.7712 283.511 37.2921C283.511 36.7879 283.147 36.5179 282.541 36.5179Z" fill="#22306D"/>
</svg>
