<svg width="648" height="265" viewBox="0 0 648 265" fill="none" xmlns="http://www.w3.org/2000/svg">
<path d="M4.90909 110.892L0 111.531V265H648V36.0328L643.091 26.7214C638.182 17.41 628.364 -1.2127 618.545 4.66778C608.727 10.5483 598.909 40.932 589.091 48.6488C579.273 56.3657 569.455 41.4157 559.636 27.5276C549.818 13.6395 540 0.813235 530.182 0.0379815C520.364 -0.737272 510.545 10.5385 500.727 17.1202C490.909 23.7019 481.091 25.5896 471.273 34.9024C461.455 44.2152 451.636 60.9532 441.818 56.2991C432 51.645 422.182 25.5988 412.364 15.8616C402.545 6.12443 392.727 12.6963 382.909 27.0652C373.091 41.434 363.273 63.5997 353.455 66.0112C343.636 68.4227 333.818 51.0799 324 48.7843C314.182 46.4886 304.364 59.2401 294.545 67.6815C284.727 76.123 274.909 80.2543 265.091 78.9666C255.273 77.679 245.455 70.9723 235.636 67.4624C225.818 63.9524 216 63.6392 206.182 72.6519C196.364 81.6646 186.545 100.003 176.727 102.103C166.909 104.202 157.091 90.0624 147.273 75.2918C137.455 60.5212 127.636 45.1198 117.818 37.8554C108 30.5911 98.1818 31.4639 88.3636 34.7689C78.5454 38.0738 68.7273 43.811 58.9091 56.3709C49.0909 68.9308 39.2727 88.3134 29.4545 98.6439C19.6364 108.974 9.81818 110.253 4.90909 110.892Z" fill="url(#paint0_linear_501_2253)"/>
<defs>
<linearGradient id="paint0_linear_501_2253" x1="324" y1="-108.992" x2="324" y2="265" gradientUnits="userSpaceOnUse">
<stop stop-color="#656CE1" stop-opacity="0.49"/>
<stop offset="0.953893" stop-color="#AFB3F9" stop-opacity="0"/>
</linearGradient>
</defs>
</svg>
