<svg width="207" height="207" viewBox="0 0 207 207" fill="none" xmlns="http://www.w3.org/2000/svg">
<path d="M207 103.5C207 160.661 160.661 207 103.5 207C46.3385 207 0 160.661 0 103.5C0 46.3385 46.3385 0 103.5 0C160.661 0 207 46.3385 207 103.5ZM51.75 103.5C51.75 132.081 74.9193 155.25 103.5 155.25C132.081 155.25 155.25 132.081 155.25 103.5C155.25 74.9193 132.081 51.75 103.5 51.75C74.9193 51.75 51.75 74.9193 51.75 103.5Z" fill="#FFB26A"/>
<path d="M103.5 0C126.03 2.6867e-07 147.945 7.35171 165.917 20.9389C183.889 34.5261 196.937 53.6066 203.079 75.2834C209.222 96.9602 208.123 120.049 199.95 141.045C191.777 162.04 176.977 179.796 157.796 191.615C138.614 203.434 116.1 208.672 93.6721 206.532C71.2436 204.393 50.1259 194.993 33.5251 179.761C16.9243 164.529 5.74732 144.296 1.69114 122.133C-2.36505 99.9714 0.92113 77.091 11.0507 56.9663L57.2754 80.2332C52.2106 90.2955 50.5675 101.736 52.5956 112.817C54.6237 123.898 60.2122 134.014 68.5125 141.631C76.8129 149.247 87.3718 153.946 98.586 155.016C109.8 156.086 121.057 153.467 130.648 147.557C140.238 141.648 147.639 132.77 151.725 122.272C155.812 111.775 156.361 100.23 153.29 89.3917C150.219 78.5533 143.695 69.013 134.709 62.2195C125.723 55.4259 114.765 51.75 103.5 51.75V0Z" fill="#72DEF6"/>
<path d="M103.5 0C124.947 2.55748e-07 145.864 6.66232 163.359 19.066C180.855 31.4696 194.066 49.002 201.165 69.2395C208.264 89.4771 208.902 111.42 202.989 132.036C197.076 152.651 184.905 170.92 168.158 184.318L135.829 143.909C144.202 137.21 150.288 128.075 153.244 117.768C156.201 107.46 155.882 96.4885 152.333 86.3698C148.783 76.251 142.178 67.4848 133.43 61.283C124.682 55.0812 114.223 51.75 103.5 51.75V0Z" fill="#AFE9C2"/>
<path d="M103.5 0C119.715 1.93367e-07 135.704 3.81002 150.177 11.1229C164.65 18.4358 177.202 29.0469 186.821 42.1009L145.161 72.8005C140.351 66.2735 134.075 60.9679 126.838 57.3115C119.602 53.655 111.608 51.75 103.5 51.75V0Z" fill="#FBE77F"/>
</svg>
