<svg width="24" height="24" viewBox="0 0 24 24" fill="none" xmlns="http://www.w3.org/2000/svg">
<g clip-path="url(#clip0_501_2018)">
<path d="M15.9318 14.2529H15.0514L14.7393 13.9522C16.0767 12.3928 16.7677 10.2654 16.3888 8.00429C15.865 4.90782 13.2794 2.43509 10.1588 2.05639C5.44448 1.47719 1.47689 5.44246 2.05642 10.154C2.43535 13.2727 4.90952 15.8568 8.00781 16.3804C10.2702 16.7591 12.3989 16.0685 13.9592 14.7319L14.2601 15.0437V15.9237L18.9967 20.6575C19.4536 21.1142 20.2003 21.1142 20.6573 20.6575C21.1142 20.2008 21.1142 19.4545 20.6573 18.9979L15.9318 14.2529ZM9.24489 14.2529C6.46981 14.2529 4.22968 12.0141 4.22968 9.24065C4.22968 6.46719 6.46981 4.22837 9.24489 4.22837C12.02 4.22837 14.2601 6.46719 14.2601 9.24065C14.2601 12.0141 12.02 14.2529 9.24489 14.2529Z" fill="#84919A"/>
</g>
<defs>
<clipPath id="clip0_501_2018">
<rect width="24" height="24" fill="white"/>
</clipPath>
</defs>
</svg>
