<svg width="650" height="114" viewBox="0 0 650 114" fill="none" xmlns="http://www.w3.org/2000/svg">
<path d="M1 113L5.90909 112.358C10.8182 111.716 20.6364 110.432 30.4545 100.058C40.2727 89.6845 50.0909 70.2204 59.9091 57.6078C69.7273 44.9951 79.5454 39.2338 89.3636 35.915C99.1818 32.5961 109 31.7197 118.818 39.0145C128.636 46.3094 138.455 61.7756 148.273 76.6082C158.091 91.4409 167.909 105.64 177.727 103.532C187.545 101.423 197.364 83.0078 207.182 73.9572C217 64.9066 226.818 65.2212 236.636 68.7459C246.455 72.2706 256.273 79.0054 266.091 80.2985C275.909 81.5916 285.727 77.4429 295.545 68.966C305.364 60.4891 315.182 47.684 325 49.9893C334.818 52.2946 344.636 69.7102 354.455 67.2886C364.273 64.867 374.091 42.6081 383.909 28.1789C393.727 13.7497 403.545 7.15017 413.364 16.9283C423.182 26.7063 433 52.862 442.818 57.5357C452.636 62.2094 462.455 45.4011 472.273 36.0491C482.091 26.6971 491.909 24.8015 501.727 18.1921C511.545 11.5827 521.364 0.25963 531.182 1.03814C541 1.81665 550.818 14.6968 560.636 28.6433C570.455 42.5898 580.273 57.6026 590.091 49.8533C599.909 42.104 609.727 11.5926 619.545 5.6874C629.364 -0.2178 639.182 18.4832 644.091 27.8337L649 37.1842" stroke="#646BE1"/>
</svg>
