<svg width="287" height="87" viewBox="0 0 287 87" fill="none" xmlns="http://www.w3.org/2000/svg">
<path d="M43.375 0.45459C19.6413 0.45459 0.400391 19.666 0.400391 43.3639C0.400391 67.0629 19.6413 86.2728 43.375 86.2728C67.1113 86.2728 86.3501 67.0629 86.3501 43.3639C86.3501 19.6675 67.1113 0.456639 43.3745 0.456639L43.375 0.45459ZM63.0829 62.3422C62.3131 63.6027 60.6607 64.0024 59.3983 63.2286C49.3083 57.0747 36.6062 55.681 21.6473 59.0936C20.2058 59.4215 18.7689 58.5197 18.4405 57.0798C18.1105 55.64 19.0101 54.2053 20.4552 53.8773C36.8254 50.143 50.8673 51.7509 62.1951 58.6632C63.4575 59.4369 63.8578 61.0817 63.0829 62.3422ZM68.3429 50.6585C67.373 52.2325 65.31 52.7296 63.7346 51.7611C52.1831 44.6716 34.5746 42.6184 20.9114 46.7596C19.1394 47.294 17.2679 46.2969 16.7301 44.5307C16.1964 42.7614 17.1955 40.8962 18.9644 40.3582C34.5715 35.6298 53.9741 37.9202 67.2396 46.0597C68.815 47.0281 69.3128 49.088 68.3429 50.659V50.6585ZM68.7945 38.492C54.9439 30.2778 32.0924 29.5225 18.8684 33.53C16.7449 34.173 14.4993 32.9761 13.8558 30.8558C13.2123 28.7344 14.41 26.4937 16.535 25.8491C31.7152 21.2478 56.9505 22.1368 72.8968 31.589C74.8109 32.7209 75.437 35.184 74.3029 37.0886C73.1739 38.9957 70.7004 39.6244 68.7965 38.492H68.7945ZM117.32 40.0661C109.9 38.2994 108.581 37.0594 108.581 34.4538C108.581 31.9923 110.9 30.3357 114.354 30.3357C117.7 30.3357 121.015 31.5936 124.494 34.1833C124.597 34.2617 124.73 34.2929 124.859 34.2724C124.992 34.253 125.105 34.1817 125.182 34.0746L128.805 28.9753C128.954 28.7652 128.913 28.4757 128.712 28.3153C124.571 24.9985 119.912 23.386 114.462 23.386C106.451 23.386 100.852 28.1867 100.852 35.0554C100.852 42.4211 105.681 45.0292 114.025 47.0425C121.123 48.6755 122.323 50.0436 122.323 52.4887C122.323 55.1993 119.901 56.8851 116.001 56.8851C111.67 56.8851 108.134 55.4248 104.183 52.0122C104.085 51.9251 103.952 51.8892 103.829 51.8944C103.695 51.9046 103.577 51.9661 103.495 52.0635L99.4309 56.8903C99.2615 57.0952 99.2821 57.3924 99.4771 57.5666C104.075 61.6658 109.73 63.8281 115.837 63.8281C124.469 63.8281 130.047 59.1192 130.047 51.8278C130.062 45.6754 126.372 42.2679 117.335 40.0728L117.32 40.0661ZM149.578 32.7593C145.837 32.7593 142.768 34.2309 140.233 37.2464V33.8523C140.233 33.5843 140.018 33.366 139.751 33.366H133.105C132.838 33.366 132.623 33.5843 132.623 33.8523V71.5654C132.623 71.8318 132.838 72.0522 133.105 72.0522H139.751C140.018 72.0522 140.233 71.8318 140.233 71.5654V59.6623C142.768 62.4959 145.837 63.8845 149.578 63.8845C156.532 63.8845 163.572 58.5402 163.572 48.3235C163.583 38.1047 156.542 32.7588 149.583 32.7588L149.578 32.7593ZM155.844 48.3235C155.844 53.5238 152.637 57.1567 148.039 57.1567C143.497 57.1567 140.069 53.3598 140.069 48.3235C140.069 43.2866 143.497 39.4907 148.039 39.4907C152.56 39.4902 155.844 43.2041 155.844 48.3229V48.3235ZM181.61 32.7593C172.655 32.7593 165.64 39.6439 165.64 48.4346C165.64 57.1311 172.609 63.9409 181.503 63.9409C190.488 63.9409 197.524 57.0798 197.524 48.3235C197.524 39.5968 190.534 32.7603 181.61 32.7603V32.7593ZM181.61 57.2079C176.848 57.2079 173.256 53.3854 173.256 48.3209C173.256 43.2333 176.725 39.5414 181.503 39.5414C186.296 39.5414 189.908 43.3624 189.908 48.4321C189.908 53.5187 186.419 57.2079 181.61 57.2079ZM216.645 33.366H209.332V25.9024C209.332 25.6349 209.116 25.4166 208.85 25.4166H202.204C201.937 25.4166 201.716 25.6349 201.716 25.9024V33.366H198.524C198.258 33.366 198.042 33.5843 198.042 33.8523V39.5537C198.042 39.8212 198.258 40.04 198.524 40.04H201.716V54.7945C201.716 60.7537 204.688 63.7769 210.553 63.7769C212.934 63.7769 214.91 63.285 216.773 62.2295C216.927 62.1475 217.019 61.9835 217.019 61.8093V56.3779C217.019 56.2139 216.932 56.055 216.788 55.9679C216.645 55.8757 216.465 55.8706 216.316 55.9474C215.038 56.5879 213.802 56.8851 212.416 56.8851C210.286 56.8851 209.332 55.9167 209.332 53.7544V40.0426H216.645C216.911 40.0426 217.127 39.8243 217.127 39.5563V33.8553C217.137 33.5874 216.922 33.3691 216.65 33.3691L216.645 33.366ZM242.118 33.3952V32.4785C242.118 29.7818 243.155 28.5792 245.475 28.5792C246.86 28.5792 247.974 28.8538 249.221 29.2689C249.375 29.317 249.534 29.2929 249.657 29.2012C249.785 29.1095 249.857 28.9624 249.857 28.8067V23.2164C249.857 23.0027 249.724 22.8137 249.513 22.7506C248.2 22.3597 246.516 21.9585 243.992 21.9585C237.859 21.9585 234.611 25.409 234.611 31.9333V33.3373H231.419C231.152 33.3373 230.931 33.5556 230.931 33.8231V39.5537C230.931 39.8212 231.152 40.04 231.419 40.04H234.611V62.7931C234.611 63.0647 234.831 63.2799 235.098 63.2799H241.739C242.011 63.2799 242.226 63.0647 242.226 62.7931V40.0415H248.43L257.934 62.7931C256.857 65.1809 255.795 65.6574 254.347 65.6574C253.177 65.6574 251.941 65.309 250.683 64.6172C250.565 64.5558 250.422 64.5455 250.298 64.5814C250.17 64.6275 250.062 64.7197 250.011 64.8427L247.758 69.7771C247.65 70.0128 247.743 70.2844 247.969 70.4074C250.319 71.6781 252.438 72.2213 255.061 72.2213C259.967 72.2213 262.681 69.9359 265.068 63.7974L276.593 34.0593C276.655 33.9097 276.634 33.7406 276.542 33.6079C276.455 33.4762 276.306 33.3967 276.147 33.3967H269.229C269.019 33.3967 268.834 33.5284 268.768 33.7226L261.681 53.9286L253.921 33.7093C253.85 33.5213 253.67 33.3967 253.47 33.3967H242.118V33.3952ZM227.349 33.366H220.704C220.437 33.366 220.216 33.5843 220.216 33.8523V62.7931C220.216 63.0647 220.437 63.2799 220.704 63.2799H227.349C227.616 63.2799 227.837 63.0647 227.837 62.7931V33.8543C227.837 33.5863 227.621 33.3681 227.349 33.3681V33.366ZM224.065 20.1876C221.432 20.1876 219.298 22.3151 219.298 24.9432C219.298 27.5728 221.432 29.7029 224.065 29.7029C226.698 29.7029 228.827 27.5728 228.827 24.9432C228.827 22.3156 226.693 20.1876 224.065 20.1876ZM282.269 42.6717C279.642 42.6717 277.594 40.5632 277.594 38.0027C277.594 35.4422 279.667 33.3096 282.295 33.3096C284.922 33.3096 286.97 35.4176 286.97 37.9761C286.97 40.5365 284.897 42.6717 282.269 42.6717ZM282.295 33.7739C279.898 33.7739 278.087 35.6749 278.087 38.0027C278.087 40.3295 279.888 42.2049 282.269 42.2049C284.666 42.2049 286.477 40.3054 286.477 37.9761C286.477 35.6493 284.676 33.7739 282.295 33.7739ZM283.331 38.4562L284.655 40.3049H283.537L282.346 38.6089H281.325V40.3049H280.391V35.4043H282.577C283.721 35.4043 284.471 35.9869 284.471 36.9677C284.476 37.7711 284.009 38.262 283.336 38.4562H283.331ZM282.541 36.2452H281.325V37.7952H282.541C283.147 37.7952 283.511 37.4985 283.511 37.0194C283.511 36.5152 283.147 36.2452 282.541 36.2452Z" fill="#22306D"/>
</svg>
